<svg xmlns="http://www.w3.org/2000/svg" xmlns:xlink="http://www.w3.org/1999/xlink" width="940" zoomAndPan="magnify" viewBox="0 0 705 591.000005" height="788" preserveAspectRatio="xMidYMid meet" version="1.0"><defs><clipPath id="92987d3d22"><path d="M 88.539062 87.761719 L 580.457031 87.761719 L 580.457031 502.558594 L 88.539062 502.558594 Z M 88.539062 87.761719 " clip-rule="nonzero"/></clipPath></defs><g clip-path="url(#92987d3d22)"><path fill="#000000" d="M 377.117188 87.75 C 376.230469 87.75 375.347656 87.820312 374.472656 87.972656 C 373.597656 88.121094 372.742188 88.34375 371.902344 88.640625 C 371.066406 88.933594 370.261719 89.300781 369.484375 89.734375 C 368.710938 90.167969 367.980469 90.667969 367.289062 91.226562 C 366.601562 91.785156 365.964844 92.402344 365.378906 93.070312 C 364.796875 93.738281 364.273438 94.453125 363.8125 95.214844 C 363.347656 95.972656 362.957031 96.765625 362.628906 97.59375 C 362.304688 98.417969 362.050781 99.269531 361.871094 100.136719 L 276.691406 483.5625 C 276.472656 484.558594 276.351562 485.566406 276.328125 486.589844 C 276.308594 487.609375 276.386719 488.621094 276.5625 489.625 C 276.742188 490.632812 277.015625 491.609375 277.382812 492.5625 C 277.753906 493.511719 278.214844 494.417969 278.761719 495.28125 C 279.308594 496.140625 279.9375 496.941406 280.644531 497.675781 C 281.347656 498.414062 282.117188 499.074219 282.953125 499.660156 C 283.789062 500.246094 284.675781 500.742188 285.609375 501.15625 C 286.542969 501.566406 287.507812 501.882812 288.503906 502.101562 C 289.5 502.324219 290.507812 502.445312 291.527344 502.464844 C 292.546875 502.488281 293.558594 502.410156 294.5625 502.230469 C 295.566406 502.054688 296.542969 501.78125 297.496094 501.410156 C 298.445312 501.039062 299.351562 500.582031 300.210938 500.03125 C 301.070312 499.484375 301.871094 498.855469 302.605469 498.148438 C 303.34375 497.441406 304.003906 496.671875 304.585938 495.835938 C 305.171875 495 305.671875 494.113281 306.082031 493.179688 C 306.492188 492.242188 306.804688 491.277344 307.027344 490.28125 L 392.203125 106.859375 C 392.335938 106.289062 392.4375 105.714844 392.507812 105.136719 C 392.578125 104.558594 392.613281 103.976562 392.617188 103.390625 C 392.621094 102.808594 392.589844 102.226562 392.527344 101.648438 C 392.46875 101.066406 392.371094 100.492188 392.246094 99.921875 C 392.121094 99.351562 391.960938 98.792969 391.773438 98.238281 C 391.582031 97.6875 391.363281 97.148438 391.113281 96.621094 C 390.863281 96.09375 390.582031 95.582031 390.273438 95.089844 C 389.96875 94.59375 389.632812 94.117188 389.269531 93.65625 C 388.910156 93.199219 388.523438 92.765625 388.113281 92.351562 C 387.703125 91.933594 387.269531 91.546875 386.816406 91.179688 C 386.359375 90.816406 385.886719 90.476562 385.394531 90.164062 C 384.902344 89.851562 384.394531 89.566406 383.871094 89.3125 C 383.34375 89.058594 382.808594 88.832031 382.257812 88.640625 C 381.707031 88.445312 381.148438 88.28125 380.582031 88.148438 C 380.015625 88.019531 379.441406 87.917969 378.859375 87.851562 C 378.28125 87.785156 377.699219 87.753906 377.117188 87.75 Z M 191.757812 191.417969 C 189.742188 191.476562 187.808594 191.914062 185.964844 192.726562 C 184.117188 193.539062 182.488281 194.667969 181.082031 196.117188 L 93.074219 284.199219 C 92.347656 284.921875 91.703125 285.707031 91.132812 286.558594 C 90.566406 287.40625 90.085938 288.304688 89.691406 289.25 C 89.300781 290.195312 89.003906 291.167969 88.804688 292.171875 C 88.605469 293.171875 88.507812 294.1875 88.507812 295.210938 C 88.507812 296.234375 88.605469 297.246094 88.804688 298.25 C 89.003906 299.25 89.300781 300.226562 89.691406 301.171875 C 90.085938 302.117188 90.566406 303.011719 91.132812 303.863281 C 91.703125 304.710938 92.347656 305.5 93.074219 306.21875 L 181.082031 394.304688 C 181.804688 395.027344 182.589844 395.671875 183.4375 396.242188 C 184.289062 396.808594 185.183594 397.289062 186.128906 397.679688 C 187.074219 398.070312 188.046875 398.367188 189.046875 398.566406 C 190.050781 398.765625 191.0625 398.863281 192.082031 398.863281 C 193.105469 398.863281 194.117188 398.765625 195.117188 398.566406 C 196.121094 398.367188 197.09375 398.070312 198.035156 397.679688 C 198.980469 397.289062 199.875 396.808594 200.726562 396.242188 C 201.574219 395.671875 202.359375 395.027344 203.082031 394.304688 C 203.804688 393.582031 204.449219 392.792969 205.019531 391.945312 C 205.585938 391.09375 206.066406 390.195312 206.457031 389.253906 C 206.847656 388.308594 207.140625 387.335938 207.339844 386.332031 C 207.539062 385.328125 207.640625 384.316406 207.640625 383.292969 C 207.640625 382.269531 207.539062 381.257812 207.339844 380.253906 C 207.140625 379.253906 206.847656 378.28125 206.457031 377.335938 C 206.066406 376.390625 205.585938 375.492188 205.019531 374.644531 C 204.449219 373.792969 203.804688 373.007812 203.082031 372.28125 L 126.078125 295.210938 L 203.082031 218.136719 C 203.644531 217.59375 204.164062 217.011719 204.636719 216.390625 C 205.109375 215.769531 205.535156 215.117188 205.910156 214.433594 C 206.285156 213.746094 206.605469 213.039062 206.875 212.304688 C 207.144531 211.570312 207.355469 210.820312 207.511719 210.054688 C 207.667969 209.289062 207.765625 208.515625 207.804688 207.738281 C 207.84375 206.957031 207.824219 206.175781 207.746094 205.398438 C 207.667969 204.621094 207.53125 203.855469 207.335938 203.097656 C 207.144531 202.34375 206.894531 201.605469 206.589844 200.886719 C 206.285156 200.164062 205.929688 199.472656 205.519531 198.808594 C 205.109375 198.144531 204.652344 197.511719 204.148438 196.914062 C 203.644531 196.320312 203.097656 195.765625 202.511719 195.25 C 201.921875 194.734375 201.300781 194.269531 200.640625 193.847656 C 199.984375 193.429688 199.296875 193.058594 198.585938 192.742188 C 197.871094 192.425781 197.136719 192.164062 196.382812 191.960938 C 195.632812 191.753906 194.867188 191.605469 194.09375 191.515625 C 193.316406 191.425781 192.539062 191.394531 191.757812 191.417969 Z M 476.652344 191.417969 C 475.882812 191.417969 475.117188 191.472656 474.355469 191.585938 C 473.59375 191.695312 472.84375 191.863281 472.109375 192.089844 C 471.371094 192.3125 470.65625 192.589844 469.957031 192.917969 C 469.261719 193.25 468.597656 193.628906 467.957031 194.058594 C 467.316406 194.488281 466.714844 194.964844 466.144531 195.484375 C 465.574219 196.003906 465.050781 196.5625 464.5625 197.160156 C 464.078125 197.757812 463.640625 198.386719 463.246094 199.050781 C 462.855469 199.714844 462.515625 200.402344 462.222656 201.117188 C 461.933594 201.832031 461.699219 202.5625 461.519531 203.3125 C 461.335938 204.058594 461.210938 204.820312 461.144531 205.585938 C 461.074219 206.351562 461.066406 207.121094 461.109375 207.890625 C 461.15625 208.660156 461.257812 209.421875 461.417969 210.175781 C 461.578125 210.929688 461.789062 211.667969 462.058594 212.390625 C 462.328125 213.113281 462.648438 213.8125 463.019531 214.484375 C 463.394531 215.160156 463.8125 215.800781 464.28125 216.414062 C 464.75 217.027344 465.261719 217.601562 465.8125 218.136719 L 542.820312 295.210938 L 465.8125 372.28125 C 465.089844 373.007812 464.445312 373.792969 463.878906 374.644531 C 463.3125 375.492188 462.832031 376.390625 462.441406 377.335938 C 462.050781 378.28125 461.753906 379.253906 461.554688 380.253906 C 461.355469 381.257812 461.257812 382.269531 461.257812 383.292969 C 461.257812 384.316406 461.355469 385.328125 461.554688 386.332031 C 461.753906 387.335938 462.050781 388.308594 462.441406 389.253906 C 462.832031 390.195312 463.3125 391.09375 463.878906 391.945312 C 464.445312 392.792969 465.089844 393.582031 465.8125 394.304688 C 466.535156 395.027344 467.320312 395.671875 468.171875 396.242188 C 469.019531 396.808594 469.917969 397.289062 470.859375 397.679688 C 471.804688 398.070312 472.777344 398.367188 473.78125 398.566406 C 474.78125 398.765625 475.792969 398.863281 476.816406 398.863281 C 477.835938 398.863281 478.847656 398.765625 479.851562 398.566406 C 480.851562 398.367188 481.824219 398.070312 482.769531 397.679688 C 483.710938 397.289062 484.609375 396.808594 485.457031 396.242188 C 486.308594 395.671875 487.09375 395.027344 487.816406 394.304688 L 575.824219 306.21875 C 576.546875 305.5 577.195312 304.710938 577.761719 303.863281 C 578.332031 303.011719 578.8125 302.117188 579.203125 301.171875 C 579.59375 300.226562 579.890625 299.25 580.089844 298.25 C 580.292969 297.246094 580.390625 296.234375 580.390625 295.210938 C 580.390625 294.1875 580.292969 293.171875 580.089844 292.171875 C 579.890625 291.167969 579.59375 290.195312 579.203125 289.25 C 578.8125 288.304688 578.332031 287.40625 577.761719 286.558594 C 577.195312 285.707031 576.546875 284.921875 575.824219 284.199219 L 487.816406 196.117188 C 486.347656 194.609375 484.648438 193.449219 482.710938 192.632812 C 480.773438 191.820312 478.753906 191.414062 476.652344 191.417969 Z M 476.652344 191.417969 " fill-opacity="1" fill-rule="nonzero"/></g></svg>