<svg xmlns="http://www.w3.org/2000/svg" xmlns:xlink="http://www.w3.org/1999/xlink" width="200" zoomAndPan="magnify" viewBox="0 0 150 74.999997" height="100" preserveAspectRatio="xMidYMid meet" version="1.0"><defs><g/></defs><g fill="#ffffff" fill-opacity="1"><g transform="translate(11.40385, 41.624996)"><g><path d="M 4.4375 0 C 3.695312 0 3.023438 -0.160156 2.421875 -0.484375 C 1.816406 -0.804688 1.328125 -1.253906 0.953125 -1.828125 C 0.585938 -2.398438 0.378906 -3.050781 0.328125 -3.78125 L 0.328125 -3.8125 C 0.328125 -3.894531 0.359375 -3.960938 0.421875 -4.015625 C 0.492188 -4.078125 0.570312 -4.109375 0.65625 -4.109375 L 1.765625 -4.109375 C 1.953125 -4.109375 2.054688 -4.007812 2.078125 -3.8125 C 2.140625 -3.195312 2.382812 -2.695312 2.8125 -2.3125 C 3.25 -1.9375 3.789062 -1.75 4.4375 -1.75 L 4.9375 -1.75 C 5.625 -1.75 6.191406 -1.96875 6.640625 -2.40625 C 7.085938 -2.851562 7.3125 -3.421875 7.3125 -4.109375 L 7.3125 -11.4375 C 7.3125 -11.519531 7.28125 -11.59375 7.21875 -11.65625 C 7.15625 -11.726562 7.078125 -11.765625 6.984375 -11.765625 L 2.390625 -11.765625 C 2.296875 -11.765625 2.21875 -11.796875 2.15625 -11.859375 C 2.09375 -11.921875 2.0625 -11.992188 2.0625 -12.078125 L 2.0625 -13.1875 C 2.0625 -13.269531 2.09375 -13.34375 2.15625 -13.40625 C 2.21875 -13.46875 2.296875 -13.5 2.390625 -13.5 L 8.734375 -13.5 C 8.816406 -13.5 8.890625 -13.46875 8.953125 -13.40625 C 9.023438 -13.34375 9.0625 -13.269531 9.0625 -13.1875 L 9.0625 -4.109375 C 9.0625 -3.328125 8.878906 -2.625 8.515625 -2 C 8.160156 -1.382812 7.671875 -0.894531 7.046875 -0.53125 C 6.429688 -0.175781 5.726562 0 4.9375 0 Z M 4.4375 0 "/></g></g></g><g fill="#ffffff" fill-opacity="1"><g transform="translate(22.440664, 41.624996)"><g><path d="M 5.171875 0 C 4.316406 0 3.550781 -0.191406 2.875 -0.578125 C 2.207031 -0.960938 1.679688 -1.488281 1.296875 -2.15625 C 0.910156 -2.832031 0.71875 -3.597656 0.71875 -4.453125 L 0.71875 -9.0625 C 0.71875 -9.90625 0.910156 -10.660156 1.296875 -11.328125 C 1.679688 -12.003906 2.207031 -12.535156 2.875 -12.921875 C 3.550781 -13.304688 4.316406 -13.5 5.171875 -13.5 L 6.75 -13.5 C 7.601562 -13.5 8.363281 -13.304688 9.03125 -12.921875 C 9.707031 -12.535156 10.238281 -12.003906 10.625 -11.328125 C 11.007812 -10.660156 11.203125 -9.90625 11.203125 -9.0625 L 11.203125 -4.453125 C 11.203125 -3.597656 11.007812 -2.832031 10.625 -2.15625 C 10.238281 -1.488281 9.710938 -0.960938 9.046875 -0.578125 C 8.378906 -0.191406 7.613281 0 6.75 0 Z M 5.171875 -1.75 L 6.75 -1.75 C 7.28125 -1.75 7.75 -1.863281 8.15625 -2.09375 C 8.5625 -2.320312 8.878906 -2.640625 9.109375 -3.046875 C 9.335938 -3.453125 9.453125 -3.921875 9.453125 -4.453125 L 9.453125 -9.0625 C 9.453125 -9.59375 9.332031 -10.0625 9.09375 -10.46875 C 8.863281 -10.875 8.546875 -11.191406 8.140625 -11.421875 C 7.742188 -11.648438 7.28125 -11.765625 6.75 -11.765625 L 5.171875 -11.765625 C 4.640625 -11.765625 4.164062 -11.644531 3.75 -11.40625 C 3.34375 -11.175781 3.023438 -10.859375 2.796875 -10.453125 C 2.578125 -10.054688 2.46875 -9.59375 2.46875 -9.0625 L 2.46875 -4.453125 C 2.46875 -3.921875 2.582031 -3.453125 2.8125 -3.046875 C 3.039062 -2.640625 3.359375 -2.320312 3.765625 -2.09375 C 4.179688 -1.863281 4.648438 -1.75 5.171875 -1.75 Z M 5.171875 -1.75 "/></g></g></g><g fill="#ffffff" fill-opacity="1"><g transform="translate(35.541729, 41.624996)"><g><path d="M 3.5 -14.59375 C 3.28125 -14.59375 3.171875 -14.695312 3.171875 -14.90625 L 3.171875 -15.4375 C 3.171875 -15.820312 3.253906 -16.128906 3.421875 -16.359375 C 3.597656 -16.597656 3.820312 -16.769531 4.09375 -16.875 C 4.363281 -16.976562 4.644531 -17.03125 4.9375 -17.03125 C 5.21875 -17.03125 5.484375 -16.988281 5.734375 -16.90625 C 5.992188 -16.832031 6.210938 -16.734375 6.390625 -16.609375 L 7.125 -16.078125 C 7.28125 -15.972656 7.441406 -15.921875 7.609375 -15.921875 C 7.734375 -15.921875 7.84375 -15.957031 7.9375 -16.03125 C 8.03125 -16.101562 8.078125 -16.226562 8.078125 -16.40625 L 8.078125 -16.671875 C 8.078125 -16.878906 8.179688 -16.984375 8.390625 -16.984375 L 9.21875 -16.984375 C 9.425781 -16.984375 9.53125 -16.878906 9.53125 -16.671875 L 9.53125 -16.140625 C 9.53125 -15.765625 9.445312 -15.457031 9.28125 -15.21875 C 9.113281 -14.976562 8.894531 -14.804688 8.625 -14.703125 C 8.351562 -14.597656 8.066406 -14.546875 7.765625 -14.546875 C 7.503906 -14.546875 7.242188 -14.582031 6.984375 -14.65625 C 6.722656 -14.738281 6.503906 -14.84375 6.328125 -14.96875 L 5.59375 -15.5 C 5.4375 -15.601562 5.269531 -15.65625 5.09375 -15.65625 C 4.96875 -15.65625 4.859375 -15.617188 4.765625 -15.546875 C 4.679688 -15.484375 4.640625 -15.359375 4.640625 -15.171875 L 4.640625 -14.90625 C 4.640625 -14.695312 4.535156 -14.59375 4.328125 -14.59375 Z M 0.375 0 C 0.1875 0 0.09375 -0.0703125 0.09375 -0.21875 C 0.09375 -0.25 0.101562 -0.296875 0.125 -0.359375 L 5.203125 -13.25 C 5.265625 -13.414062 5.382812 -13.5 5.5625 -13.5 L 7.15625 -13.5 C 7.332031 -13.5 7.453125 -13.414062 7.515625 -13.25 L 12.578125 -0.359375 C 12.597656 -0.296875 12.609375 -0.25 12.609375 -0.21875 C 12.609375 -0.0703125 12.515625 0 12.328125 0 L 11.125 0 C 10.945312 0 10.828125 -0.0820312 10.765625 -0.25 L 9.796875 -2.671875 C 9.734375 -2.835938 9.613281 -2.921875 9.4375 -2.921875 L 3.28125 -2.921875 C 3.09375 -2.921875 2.96875 -2.835938 2.90625 -2.671875 L 1.953125 -0.25 C 1.890625 -0.0820312 1.769531 0 1.59375 0 Z M 4.078125 -4.671875 L 8.625 -4.671875 C 8.820312 -4.671875 8.921875 -4.742188 8.921875 -4.890625 C 8.921875 -4.921875 8.910156 -4.96875 8.890625 -5.03125 L 6.5625 -10.9375 C 6.519531 -11.070312 6.453125 -11.140625 6.359375 -11.140625 C 6.285156 -11.140625 6.21875 -11.070312 6.15625 -10.9375 L 3.828125 -5.03125 C 3.804688 -4.96875 3.796875 -4.921875 3.796875 -4.890625 C 3.796875 -4.742188 3.890625 -4.671875 4.078125 -4.671875 Z M 4.078125 -4.671875 "/></g></g></g><g fill="#ffffff" fill-opacity="1"><g transform="translate(49.436741, 41.624996)"><g><path d="M 5.171875 0 C 4.316406 0 3.550781 -0.191406 2.875 -0.578125 C 2.207031 -0.960938 1.679688 -1.488281 1.296875 -2.15625 C 0.910156 -2.832031 0.71875 -3.597656 0.71875 -4.453125 L 0.71875 -9.0625 C 0.71875 -9.90625 0.910156 -10.660156 1.296875 -11.328125 C 1.679688 -12.003906 2.207031 -12.535156 2.875 -12.921875 C 3.550781 -13.304688 4.316406 -13.5 5.171875 -13.5 L 6.75 -13.5 C 7.601562 -13.5 8.363281 -13.304688 9.03125 -12.921875 C 9.707031 -12.535156 10.238281 -12.003906 10.625 -11.328125 C 11.007812 -10.660156 11.203125 -9.90625 11.203125 -9.0625 L 11.203125 -4.453125 C 11.203125 -3.597656 11.007812 -2.832031 10.625 -2.15625 C 10.238281 -1.488281 9.710938 -0.960938 9.046875 -0.578125 C 8.378906 -0.191406 7.613281 0 6.75 0 Z M 5.171875 -1.75 L 6.75 -1.75 C 7.28125 -1.75 7.75 -1.863281 8.15625 -2.09375 C 8.5625 -2.320312 8.878906 -2.640625 9.109375 -3.046875 C 9.335938 -3.453125 9.453125 -3.921875 9.453125 -4.453125 L 9.453125 -9.0625 C 9.453125 -9.59375 9.332031 -10.0625 9.09375 -10.46875 C 8.863281 -10.875 8.546875 -11.191406 8.140625 -11.421875 C 7.742188 -11.648438 7.28125 -11.765625 6.75 -11.765625 L 5.171875 -11.765625 C 4.640625 -11.765625 4.164062 -11.644531 3.75 -11.40625 C 3.34375 -11.175781 3.023438 -10.859375 2.796875 -10.453125 C 2.578125 -10.054688 2.46875 -9.59375 2.46875 -9.0625 L 2.46875 -4.453125 C 2.46875 -3.921875 2.582031 -3.453125 2.8125 -3.046875 C 3.039062 -2.640625 3.359375 -2.320312 3.765625 -2.09375 C 4.179688 -1.863281 4.648438 -1.75 5.171875 -1.75 Z M 5.171875 -1.75 "/></g></g></g><g fill="#ffffff" fill-opacity="1"><g transform="translate(62.537805, 41.624996)"><g/></g></g><g fill="#ffffff" fill-opacity="1"><g transform="translate(67.699439, 41.624996)"><g><path d="M 1.109375 0 C 1.023438 0 0.953125 -0.03125 0.890625 -0.09375 C 0.828125 -0.15625 0.796875 -0.226562 0.796875 -0.3125 L 0.796875 -13.203125 C 0.796875 -13.285156 0.828125 -13.359375 0.890625 -13.421875 C 0.953125 -13.484375 1.023438 -13.515625 1.109375 -13.515625 L 2.640625 -13.515625 C 2.765625 -13.515625 2.847656 -13.46875 2.890625 -13.375 L 8.40625 -3.140625 C 8.46875 -3.023438 8.539062 -2.96875 8.625 -2.96875 C 8.707031 -2.96875 8.78125 -3.023438 8.84375 -3.140625 L 14.359375 -13.375 C 14.410156 -13.46875 14.5 -13.515625 14.625 -13.515625 L 16.140625 -13.515625 C 16.222656 -13.515625 16.296875 -13.484375 16.359375 -13.421875 C 16.429688 -13.359375 16.46875 -13.285156 16.46875 -13.203125 L 16.46875 -0.3125 C 16.46875 -0.226562 16.429688 -0.15625 16.359375 -0.09375 C 16.296875 -0.03125 16.222656 0 16.140625 0 L 15.03125 0 C 14.945312 0 14.875 -0.03125 14.8125 -0.09375 C 14.75 -0.15625 14.71875 -0.226562 14.71875 -0.3125 L 14.71875 -9.5625 C 14.71875 -9.75 14.664062 -9.84375 14.5625 -9.84375 C 14.46875 -9.84375 14.390625 -9.78125 14.328125 -9.65625 L 9.546875 -0.78125 C 9.492188 -0.6875 9.414062 -0.640625 9.3125 -0.640625 L 7.984375 -0.609375 C 7.859375 -0.609375 7.769531 -0.660156 7.71875 -0.765625 L 2.921875 -9.65625 C 2.859375 -9.78125 2.785156 -9.84375 2.703125 -9.84375 C 2.597656 -9.84375 2.546875 -9.75 2.546875 -9.5625 L 2.546875 -0.3125 C 2.546875 -0.226562 2.515625 -0.15625 2.453125 -0.09375 C 2.390625 -0.03125 2.3125 0 2.21875 0 Z M 1.109375 0 "/></g></g></g><g fill="#ffffff" fill-opacity="1"><g transform="translate(86.135795, 41.624996)"><g><path d="M 5.171875 0 C 4.316406 0 3.550781 -0.191406 2.875 -0.578125 C 2.207031 -0.960938 1.679688 -1.488281 1.296875 -2.15625 C 0.910156 -2.832031 0.71875 -3.597656 0.71875 -4.453125 L 0.71875 -9.0625 C 0.71875 -9.90625 0.910156 -10.660156 1.296875 -11.328125 C 1.679688 -12.003906 2.207031 -12.535156 2.875 -12.921875 C 3.550781 -13.304688 4.316406 -13.5 5.171875 -13.5 L 6.75 -13.5 C 7.601562 -13.5 8.363281 -13.304688 9.03125 -12.921875 C 9.707031 -12.535156 10.238281 -12.003906 10.625 -11.328125 C 11.007812 -10.660156 11.203125 -9.90625 11.203125 -9.0625 L 11.203125 -4.453125 C 11.203125 -3.597656 11.007812 -2.832031 10.625 -2.15625 C 10.238281 -1.488281 9.710938 -0.960938 9.046875 -0.578125 C 8.378906 -0.191406 7.613281 0 6.75 0 Z M 5.171875 -1.75 L 6.75 -1.75 C 7.28125 -1.75 7.75 -1.863281 8.15625 -2.09375 C 8.5625 -2.320312 8.878906 -2.640625 9.109375 -3.046875 C 9.335938 -3.453125 9.453125 -3.921875 9.453125 -4.453125 L 9.453125 -9.0625 C 9.453125 -9.59375 9.332031 -10.0625 9.09375 -10.46875 C 8.863281 -10.875 8.546875 -11.191406 8.140625 -11.421875 C 7.742188 -11.648438 7.28125 -11.765625 6.75 -11.765625 L 5.171875 -11.765625 C 4.640625 -11.765625 4.164062 -11.644531 3.75 -11.40625 C 3.34375 -11.175781 3.023438 -10.859375 2.796875 -10.453125 C 2.578125 -10.054688 2.46875 -9.59375 2.46875 -9.0625 L 2.46875 -4.453125 C 2.46875 -3.921875 2.582031 -3.453125 2.8125 -3.046875 C 3.039062 -2.640625 3.359375 -2.320312 3.765625 -2.09375 C 4.179688 -1.863281 4.648438 -1.75 5.171875 -1.75 Z M 5.171875 -1.75 "/></g></g></g><g fill="#ffffff" fill-opacity="1"><g transform="translate(99.236858, 41.624996)"><g><path d="M 5.25 0 C 4.394531 0 3.628906 -0.191406 2.953125 -0.578125 C 2.285156 -0.960938 1.757812 -1.488281 1.375 -2.15625 C 0.988281 -2.832031 0.796875 -3.597656 0.796875 -4.453125 L 0.796875 -13.1875 C 0.796875 -13.394531 0.898438 -13.5 1.109375 -13.5 L 2.21875 -13.5 C 2.4375 -13.5 2.546875 -13.394531 2.546875 -13.1875 L 2.546875 -4.453125 C 2.546875 -3.921875 2.660156 -3.453125 2.890625 -3.046875 C 3.117188 -2.640625 3.4375 -2.320312 3.84375 -2.09375 C 4.257812 -1.863281 4.726562 -1.75 5.25 -1.75 L 6.828125 -1.75 C 7.359375 -1.75 7.828125 -1.863281 8.234375 -2.09375 C 8.640625 -2.320312 8.957031 -2.640625 9.1875 -3.046875 C 9.414062 -3.453125 9.53125 -3.921875 9.53125 -4.453125 L 9.53125 -13.1875 C 9.53125 -13.394531 9.640625 -13.5 9.859375 -13.5 L 10.96875 -13.5 C 11.175781 -13.5 11.28125 -13.394531 11.28125 -13.1875 L 11.28125 -4.453125 C 11.28125 -3.597656 11.085938 -2.832031 10.703125 -2.15625 C 10.316406 -1.488281 9.789062 -0.960938 9.125 -0.578125 C 8.457031 -0.191406 7.691406 0 6.828125 0 Z M 5.25 0 "/></g></g></g><g fill="#ffffff" fill-opacity="1"><g transform="translate(112.496714, 41.624996)"><g><path d="M 1.109375 0 C 0.898438 0 0.796875 -0.101562 0.796875 -0.3125 L 0.796875 -13.1875 C 0.796875 -13.394531 0.898438 -13.5 1.109375 -13.5 L 7.578125 -13.5 C 8.285156 -13.5 8.914062 -13.335938 9.46875 -13.015625 C 10.03125 -12.691406 10.472656 -12.253906 10.796875 -11.703125 C 11.117188 -11.148438 11.28125 -10.515625 11.28125 -9.796875 L 11.28125 -9.109375 C 11.28125 -8.296875 11.070312 -7.582031 10.65625 -6.96875 C 10.238281 -6.363281 9.6875 -5.925781 9 -5.65625 C 8.851562 -5.601562 8.78125 -5.523438 8.78125 -5.421875 C 8.78125 -5.390625 8.800781 -5.332031 8.84375 -5.25 L 11.796875 -0.375 C 11.835938 -0.320312 11.859375 -0.257812 11.859375 -0.1875 C 11.859375 -0.0625 11.765625 0 11.578125 0 L 10.171875 0 C 10.003906 0 9.875 -0.0703125 9.78125 -0.21875 L 6.828125 -5.1875 C 6.742188 -5.332031 6.617188 -5.40625 6.453125 -5.40625 L 2.859375 -5.40625 C 2.648438 -5.40625 2.546875 -5.296875 2.546875 -5.078125 L 2.546875 -0.3125 C 2.546875 -0.101562 2.4375 0 2.21875 0 Z M 2.859375 -7.15625 L 7.578125 -7.15625 C 8.160156 -7.15625 8.628906 -7.332031 8.984375 -7.6875 C 9.347656 -8.050781 9.53125 -8.523438 9.53125 -9.109375 L 9.53125 -9.796875 C 9.53125 -10.378906 9.347656 -10.851562 8.984375 -11.21875 C 8.628906 -11.582031 8.160156 -11.765625 7.578125 -11.765625 L 2.859375 -11.765625 C 2.648438 -11.765625 2.546875 -11.65625 2.546875 -11.4375 L 2.546875 -7.46875 C 2.546875 -7.257812 2.648438 -7.15625 2.859375 -7.15625 Z M 2.859375 -7.15625 "/></g></g></g><g fill="#ffffff" fill-opacity="1"><g transform="translate(125.867716, 41.624996)"><g><path d="M 0.375 0 C 0.1875 0 0.09375 -0.0703125 0.09375 -0.21875 C 0.09375 -0.25 0.101562 -0.296875 0.125 -0.359375 L 5.203125 -13.25 C 5.265625 -13.414062 5.382812 -13.5 5.5625 -13.5 L 7.15625 -13.5 C 7.332031 -13.5 7.453125 -13.414062 7.515625 -13.25 L 12.578125 -0.359375 C 12.597656 -0.296875 12.609375 -0.25 12.609375 -0.21875 C 12.609375 -0.0703125 12.515625 0 12.328125 0 L 11.125 0 C 10.945312 0 10.828125 -0.0820312 10.765625 -0.25 L 9.796875 -2.671875 C 9.734375 -2.835938 9.613281 -2.921875 9.4375 -2.921875 L 3.28125 -2.921875 C 3.09375 -2.921875 2.96875 -2.835938 2.90625 -2.671875 L 1.953125 -0.25 C 1.890625 -0.0820312 1.769531 0 1.59375 0 Z M 4.078125 -4.671875 L 8.625 -4.671875 C 8.820312 -4.671875 8.921875 -4.742188 8.921875 -4.890625 C 8.921875 -4.921875 8.910156 -4.96875 8.890625 -5.03125 L 6.5625 -10.9375 C 6.519531 -11.070312 6.453125 -11.140625 6.359375 -11.140625 C 6.285156 -11.140625 6.21875 -11.070312 6.15625 -10.9375 L 3.828125 -5.03125 C 3.804688 -4.96875 3.796875 -4.921875 3.796875 -4.890625 C 3.796875 -4.742188 3.890625 -4.671875 4.078125 -4.671875 Z M 4.078125 -4.671875 "/></g></g></g></svg>